HIERARCHY
ROOT Hips
{
	OFFSET 0.00000 0.00000 0.00000
	CHANNELS 6 Xposition Yposition Zposition Yrotation Zrotation Xrotation 
	JOINT Lumbar
	{
		OFFSET 0 0 0
		CHANNELS 3 Zrotation Xrotation Yrotation
		JOINT Neck
		{
			OFFSET 0.00 0.2701 0.00
			CHANNELS 3 Zrotation Xrotation Yrotation
			End Site
			{
				OFFSET 0.00 0.1379 0.00
			}
		}
		JOINT RightShoulder
		{
			OFFSET 0.0119 0.2289 0.1181
			CHANNELS 3 Zrotation Xrotation Yrotation
			JOINT RightElbow
			{
				OFFSET 0.00 -0.1475 0.00
				CHANNELS 2 Zrotation Yrotation
				JOINT RightWrist
				{
					OFFSET 0.00 -0.1605 0.00
					CHANNELS 2 Zrotation Xrotation
					End Site
					{
						OFFSET 0.0040 -0.1068 0.0006
					}
				}
			}
		}
		JOINT LeftShoulder
		{
			OFFSET 0.0119 0.2289 -0.1181
			CHANNELS 3 Zrotation Xrotation Yrotation
			JOINT LeftElbow
			{
				OFFSET 0.00 -0.1475 0.00
				CHANNELS 2 Zrotation Yrotation
				JOINT LeftWrist
				{
					OFFSET 0.00 -0.1605 0.00
					CHANNELS 2 Zrotation Xrotation
					End Site
					{
						OFFSET 0.0040 -0.1068 -0.0006
					}
				}
			}
		}
	}
	JOINT RightHip
	{
		OFFSET 0.0316 -0.0424 0.0458
		CHANNELS 3 Zrotation Xrotation Yrotation
		JOINT RightKnee
		{
			OFFSET 0.00 -0.2438 0.00
			CHANNELS 1 Zrotation
			JOINT RightAnkle
			{
				OFFSET 0.00 -0.2449 0.00
				CHANNELS 3 Zrotation Xrotation Yrotation
				End Site
				{
					OFFSET 0.1237 -0.0542 0.0051
				}
			}
		}
	}
	JOINT LeftHip
	{
		OFFSET 0.0316 -0.0424 -0.0458
		CHANNELS 3 Zrotation Xrotation Yrotation
		JOINT LeftKnee
		{
			OFFSET 0.00 -0.2438 0.00
			CHANNELS 1 Zrotation
			JOINT LeftAnkle
			{
				OFFSET 0.00 -0.2449 0.00
				CHANNELS 3 Zrotation Xrotation Yrotation
				End Site
				{
					OFFSET 0.1237 -0.0542 -0.0051
				}
			}
		}
	}
}
MOTION
Frames: 33
Frame Time: 0.02
0.00137 0.00022 0.00011 18.88857 -25.5554 -2.32875 49.38318 -0.53433 -3.17466 -10.79784 6.01532 -0.4388 -6.03025 -5.43594 -30.9249 14.31627 107.32479 11.29623 2.8761 -18.77037 10.39692 -10.44206 29.6825 -98.29737 13.0414 -0.16838 39.67507 -3.09686 0.2435 -21.25479 -7.26045 -4.94235 -3.36291 42.75205 3.49545 -0.79068 -25.96789 -7.16986 4.28176 2.97478
0.00146 0.00019 0.00015 18.93158 -25.58259 -2.33617 49.40679 -0.51835 -3.18001 -10.81007 6.06077 -0.43916 -6.02651 -5.47936 -30.76231 14.37957 107.19683 11.29026 2.84123 -18.87997 10.46898 -10.43643 29.82103 -98.30895 13.04258 -0.17241 39.67597 -3.13112 0.0173 -21.24881 -7.23873 -4.9341 -3.34984 42.79265 3.5584 -0.57778 -25.99047 -7.15847 4.26327 2.95802
0.00155 0.00016 0.00019 18.97447 -25.60977 -2.34362 49.43025 -0.50238 -3.18534 -10.82231 6.10624 -0.43952 -6.02291 -5.5227 -30.59946 14.443 107.06805 11.28426 2.80649 -18.98953 10.54093 -10.43077 29.95958 -98.32052 13.04379 -0.17643 39.67698 -3.16535 -0.2086 -21.2429 -7.21704 -4.92584 -3.33678 42.83328 3.62124 -0.36519 -26.01307 -7.14708 4.24478 2.94127
0.00164 0.00014 0.00024 19.01735 -25.6369 -2.35103 49.45377 -0.48645 -3.19067 -10.8345 6.15157 -0.43989 -6.0192 -5.56599 -30.43724 14.50615 106.94025 11.2783 2.77174 -19.09885 10.61279 -10.42515 30.09778 -98.33207 13.04496 -0.18045 39.6779 -3.19952 -0.43419 -21.23694 -7.19538 -4.91761 -3.32375 42.87379 3.68401 -0.15288 -26.03559 -7.13571 4.22634 2.92455
0.00172 0.00011 0.00028 19.06035 -25.66397 -2.35841 49.47746 -0.47051 -3.19602 -10.84672 6.19682 -0.44025 -6.01531 -5.60932 -30.27557 14.56904 106.81381 11.27237 2.73682 -19.2081 10.68469 -10.41959 30.23574 -98.3436 13.04611 -0.18448 39.67866 -3.2337 -0.65988 -21.23089 -7.1737 -4.9094 -3.3107 42.91421 3.74684 0.05958 -26.05807 -7.12434 4.20791 2.90781
0.00181 8e-05 0.00032 19.103 -25.69139 -2.36599 49.50042 -0.4545 -3.2013 -10.85902 6.24275 -0.44061 -6.01234 -5.65268 -30.11026 14.63359 106.68021 11.26624 2.70244 -19.31827 10.75674 -10.41372 30.37549 -98.35525 13.04746 -0.18846 39.68019 -3.26805 -0.88619 -21.22529 -7.15201 -4.90104 -3.29763 42.95526 3.8097 0.27239 -26.08092 -7.11291 4.18931 2.89105
0.0019 6e-05 0.00036 19.1463 -25.71812 -2.37316 49.52484 -0.43864 -3.2067 -10.87104 6.28726 -0.44097 -6.00749 -5.69597 -29.95242 14.69473 106.56088 11.2605 2.66708 -19.4265 10.82844 -10.40848 30.51162 -98.36667 13.04836 -0.19254 39.68021 -3.30202 -1.11113 -21.21879 -7.13036 -4.89297 -3.28463 42.99505 3.87246 0.48435 -26.10298 -7.10162 4.17107 2.87436
0.00199 3e-05 0.0004 19.18902 -25.74541 -2.3807 49.5479 -0.42267 -3.21204 -10.88349 6.33307 -0.44134 -6.00443 -5.73924 -29.78779 14.75902 106.42888 11.25444 2.63251 -19.53647 10.90042 -10.40264 30.65085 -98.37826 13.04973 -0.19653 39.68152 -3.33632 -1.33709 -21.21313 -7.10868 -4.88466 -3.27157 43.0359 3.93525 0.69695 -26.1258 -7.0902 4.15251 2.85761
0.00207 0 0.00044 19.23096 -25.77372 -2.38873 49.56936 -0.40642 -3.2171 -10.89578 6.38058 -0.44171 -6.00334 -5.78285 -29.61424 14.82724 106.27919 11.24785 2.59936 -19.64887 10.97297 -10.39613 30.79497 -98.39023 13.05149 -0.20042 39.68485 -3.37111 -1.56545 -21.20844 -7.08689 -4.87595 -3.25838 43.07848 3.99837 0.91107 -26.14945 -7.07859 4.1335 2.84074
0.00218 -2e-05 0.0005 19.27718 -25.79716 -2.39406 49.60018 -0.39136 -3.22317 -10.90696 6.41862 -0.44204 -5.99028 -5.82563 -29.49012 14.87308 106.22466 11.24387 2.55941 -19.74822 11.04293 -10.39367 30.91424 -98.40052 13.05045 -0.20491 39.67789 -3.40335 -1.78345 -21.198 -7.06551 -4.86925 -3.24575 43.11244 4.06048 1.11864 -26.16804 -7.06802 4.11688 2.82443
0.00223 -6e-05 0.0005 19.31451 -25.83025 -2.40503 49.61117 -0.37406 -3.22746 -10.92177 6.47643 -0.44245 -6.00285 -5.86943 -29.26302 14.96593 105.97374 11.23467 2.53293 -19.87448 11.11789 -10.38255 31.08379 -98.41402 13.05565 -0.20812 39.69175 -3.44079 -2.02106 -21.19979 -7.04343 -4.85851 -3.23209 43.1637 4.12413 1.33859 -26.19745 -7.05527 4.09538 2.80702
0.0021 -0.00014 0.00038 19.32647 -25.89531 -2.43205 49.56853 -0.34849 -3.22382 -10.93708 6.59066 -0.44304 -6.08369 -5.92225 -28.74012 15.19024 105.14071 11.20899 2.55102 -20.08021 11.21046 -10.34812 31.41023 -98.4399 13.07588 -0.20802 39.77063 -3.49468 -2.33294 -21.2349 -7.0179 -4.83481 -3.21421 43.27002 4.19678 1.60557 -26.25568 -7.03623 4.05881 2.7857
0.00192 -0.00024 0.0002 19.32991 -25.96908 -2.4646 49.50636 -0.32114 -3.21883 -10.95846 6.72429 -0.4437 -6.19078 -5.97509 -28.1166 15.46076 104.11751 11.17877 2.58129 -20.31177 11.30722 -10.30465 31.78345 -98.46873 13.10297 -0.20661 39.86887 -3.55371 -2.6617 -21.28243 -6.99187 -4.80733 -3.1955 43.39219 4.27009 1.88305 -26.32489 -7.01503 4.01758 2.7634
0.00178 -0.00033 4e-05 19.33765 -26.03526 -2.49429 49.45192 -0.29593 -3.21661 -10.98238 6.84768 -0.44432 -6.28704 -6.02369 -27.5473 15.70925 103.21079 11.15164 2.6009 -20.52804 11.39968 -10.26537 32.12316 -98.49335 13.12809 -0.20568 39.95319 -3.60854 -2.96811 -21.32432 -6.96719 -4.78292 -3.17814 43.50224 4.33998 2.14656 -26.3897 -6.99507 3.97964 2.74218
0.00158 -0.00044 -7e-05 19.34269 -26.11665 -2.52561 49.40007 -0.26484 -3.20579 -10.98121 6.97728 -0.44496 -6.37817 -6.08959 -26.94051 15.96446 102.18082 11.1189 2.64189 -20.76002 11.50271 -10.22682 32.51549 -98.52843 13.14762 -0.20522 40.05951 -3.66994 -3.33245 -21.36585 -6.93812 -4.75313 -3.15688 43.63346 4.42304 2.44689 -26.45225 -6.97415 3.93699 2.71842
0.00149 -0.00051 -0.00032 19.35241 -26.16861 -2.55464 49.34098 -0.2459 -3.21194 -11.03714 7.09834 -0.44559 -6.4869 -6.12018 -26.38976 16.21375 101.35744 11.09834 2.64161 -20.96456 11.58417 -10.18325 32.80828 -98.54448 13.18136 -0.20349 40.12418 -3.72054 -3.58525 -21.41155 -6.91765 -4.73325 -3.14327 43.72388 4.47879 2.6756 -26.52185 -6.95452 3.90272 2.69954
0.00171 -0.00052 -0.00093 19.3685 -26.13636 -2.57792 49.24276 -0.25804 -3.27008 -11.2186 7.19332 -0.44621 -6.6305 -6.04771 -26.00633 16.45923 101.19862 11.09868 2.52119 -21.09313 11.60951 -10.13872 32.82408 -98.49369 13.24519 -0.19913 40.07398 -3.72551 -3.48011 -21.46188 -6.92497 -4.7454 -3.15338 43.7028 4.45849 2.6789 -26.61031 -6.94099 3.89602 2.69623
0.00204 -0.0005 -0.00168 19.39157 -26.07504 -2.59837 49.14227 -0.28287 -3.34405 -11.46194 7.2789 -0.44682 -6.79133 -5.94113 -25.68716 16.69229 101.24788 11.11368 2.35946 -21.19138 11.61207 -10.08675 32.73684 -98.42891 13.32495 -0.19392 39.98129 -3.722 -3.2694 -21.51693 -6.94039 -4.76711 -3.17085 43.64003 4.41018 2.61241 -26.705 -6.92855 3.89752 2.69763
0.00235 -0.00048 -0.0024 19.4167 -26.02666 -2.6188 49.05873 -0.30397 -3.4081 -11.6984 7.36696 -0.44744 -6.95027 -5.85333 -25.3438 16.91587 101.16767 11.13145 2.21866 -21.30035 11.62224 -10.03207 32.69004 -98.37593 13.40167 -0.18815 39.90361 -3.73212 -3.13868 -21.57204 -6.9493 -4.78185 -3.18324 43.59194 4.37576 2.59692 -26.79559 -6.91419 3.89289 2.69551
0.00255 -0.00048 -0.00299 19.41804 -25.97684 -2.6448 48.90792 -0.31699 -3.48516 -11.84981 7.46211 -0.44803 -7.08891 -5.75011 -24.96706 17.20653 101.21825 11.11061 2.06895 -21.42586 11.64447 -10.00567 32.66983 -98.2888 13.45887 -0.18436 39.8407 -3.70178 -2.87865 -21.61728 -6.96944 -4.80697 -3.20253 43.5589 4.33886 2.50876 -26.89232 -6.90538 3.8974 2.69873
0.00299 -0.00046 -0.00389 19.47245 -25.92664 -2.65865 48.89616 -0.34916 -3.53694 -12.18747 7.54147 -0.44869 -7.26873 -5.67289 -24.68734 17.35191 101.06081 11.172 1.92812 -21.50598 11.63571 -9.9151 32.57165 -98.28359 13.56295 -0.17872 39.74179 -3.75284 -2.85608 -21.68528 -6.96898 -4.81352 -3.20969 43.48881 4.29743 2.54472 -26.97712 -6.88578 3.88591 2.69253
0.00412 -0.00039 -0.00557 19.65653 -25.85089 -2.63788 49.27289 -0.43695 -3.53288 -13.06974 7.56687 -0.4495 -7.59704 -5.65967 -24.56015 17.11868 100.16742 11.47161 1.81915 -21.4973 11.55251 -9.68565 32.26384 -98.3764 13.76786 -0.14578 39.51219 -4.03814 -3.5722 -21.80801 -6.90239 -4.76 -3.17751 43.28877 4.27703 3.03385 -27.03164 -6.83192 3.81891 2.65392
0.00547 -0.00031 -0.00756 19.89651 -25.78129 -2.60528 49.78692 -0.54235 -3.50013 -14.12746 7.57899 -0.45041 -7.95704 -5.67738 -24.54277 16.73766 99.07605 11.85051 1.72088 -21.43865 11.43931 -9.38887 31.88603 -98.56941 14.02181 -0.11417 39.25694 -4.40457 -4.52056 -21.95734 -6.81619 -4.6886 -3.1336 43.05986 4.24862 3.63497 -27.07328 -6.76788 3.73699 2.60648
0.00667 -0.00024 -0.00942 20.12109 -25.73 -2.57921 50.23828 -0.63605 -3.46801 -15.07672 7.60537 -0.45126 -8.27904 -5.69078 -24.54694 16.40892 98.15273 12.18381 1.61959 -21.38337 11.3343 -9.09428 31.55091 -98.81208 14.27222 -0.09799 39.03889 -4.72864 -5.32456 -22.09561 -6.74366 -4.62971 -3.09778 42.8689 4.20561 4.12075 -27.11778 -6.7114 3.66837 2.56671
0.00808 -0.00013 -0.01125 20.30426 -25.58999 -2.54816 50.6993 -0.7464 -3.48624 -16.15491 7.59663 -0.45207 -8.70845 -5.65946 -24.27098 16.13498 96.91954 12.55905 1.50953 -21.40777 11.24548 -8.90398 31.16011 -98.68224 14.45293 -0.01834 38.70571 -5.07438 -6.28723 -22.21888 -6.6511 -4.55295 -3.05074 42.57167 4.23624 4.86725 -27.17441 -6.64294 3.57363 2.51231
0.00909 -0.00012 -0.0132 20.58609 -25.63487 -2.52475 51.16204 -0.82532 -3.39585 -16.99851 7.65807 -0.4531 -8.91248 -5.73207 -24.57947 15.72154 96.26625 12.86426 1.42023 -21.25591 11.12365 -8.49989 30.87774 -99.3148 14.77909 -0.06591 38.61412 -5.39589 -6.97785 -22.39323 -6.5958 -4.50864 -3.02396 42.48949 4.11496 5.10942 -27.20358 -6.59652 3.52823 2.48543
0.00908 -0.00037 -0.01554 21.13245 -26.20407 -2.52521 51.68969 -0.81951 -2.98453 -17.21133 7.91598 -0.45371 -8.56154 -6.05822 -26.68509 14.87548 97.40002 12.96767 1.39114 -20.61992 10.85295 -7.35377 30.84432 -102.35684 15.59231 -0.51118 39.13479 -5.61726 -6.84322 -22.58652 -6.64558 -4.5616 -3.05784 43.00806 3.55058 3.83418 -27.15183 -6.61779 3.63505 2.54356
0.00863 -0.00072 -0.01797 21.77441 -26.95655 -2.5339 52.19782 -0.78013 -2.47017 -17.17154 8.24505 -0.4547 -7.96793 -6.4925 -29.33697 13.90885 99.09905 12.99565 1.38199 -19.81054 10.56197 -6.02438 30.93427 -106.10639 16.53322 -1.0765 39.91185 -5.81367 -6.42977 -22.85217 -6.73395 -4.6471 -3.11208 43.74413 2.83856 2.06517 -27.07436 -6.66084 3.78985 2.62847
0.00828 -0.00105 -0.0203 22.36958 -27.61512 -2.53885 52.65213 -0.75198 -2.02108 -17.20646 8.54205 -0.45617 -7.43688 -6.89492 -31.59883 13.05344 100.44635 13.05106 1.35999 -19.08658 10.32348 -4.8916 31.01426 -109.31016 17.35008 -1.55526 40.61091 -6.03076 -6.15676 -23.16011 -6.80637 -4.71558 -3.1558 44.3811 2.21101 0.58757 -27.01412 -6.69097 3.91433 2.69646
0.00838 -0.00129 -0.0229 22.98344 -28.31821 -2.54306 53.3718 -0.74178 -1.49257 -17.41252 8.83775 -0.45495 -7.11107 -7.22707 -34.45724 11.95849 102.18119 13.13862 1.35335 -18.33156 9.90265 -3.28577 30.90248 -113.44362 18.44217 -2.16604 41.14342 -6.21263 -5.83695 -23.15034 -6.87155 -4.79315 -3.20464 45.01871 1.50967 -1.16546 -26.93026 -6.73324 4.07355 2.78381
0.00743 -0.00173 -0.02495 23.57708 -28.97261 -2.55131 53.53746 -0.6856 -1.10611 -17.20519 9.15283 -0.45936 -6.29643 -7.72882 -36.20873 11.33095 103.25328 13.13969 1.32055 -17.60243 9.8554 -2.61292 31.21357 -115.83315 18.99725 -2.53429 42.08784 -6.45916 -5.54149 -23.82072 -6.96105 -4.8594 -3.24759 45.70626 0.92728 -2.46808 -26.88937 -6.75587 4.1729 2.83781
0.00356 -0.00266 -0.02544 24.11841 -29.44284 -2.56537 52.13382 -0.5137 -1.12987 -15.87106 9.50783 -0.47965 -4.2197 -8.68954 -34.70778 12.0649 102.29088 12.92504 1.19992 -16.97345 10.86012 -4.64412 32.72109 -113.01006 17.98091 -2.1692 44.07319 -6.90514 -5.41606 -26.33308 -7.10953 -4.8898 -3.27112 46.48489 0.70846 -2.36598 -26.97592 -6.71582 4.08752 2.78895
-0.00132 -0.00377 -0.02539 24.63037 -29.85864 -2.58385 50.18142 -0.29601 -1.30079 -14.13767 9.8793 -0.5055 -1.65462 -9.81349 -32.08651 13.26579 100.65486 12.62487 1.05419 -16.37986 12.23842 -7.60474 34.63912 -108.44795 16.43012 -1.56213 46.46919 -7.41417 -5.31871 -29.52669 -7.2808 -4.90731 -3.28782 47.30482 0.61509 -1.8008 -27.10611 -6.65583 3.94171 2.70642
